# Blender v2.77 (sub 0) OBJ File: ''
# www.blender.org
o Cube_Cube.001
v -0.066954 -0.066954 0.066954
v -0.066954 0.066954 0.066954
v -0.066954 -0.066954 -0.066954
v -0.066954 0.066954 -0.066954
v 0.066954 -0.066954 0.066954
v 0.066954 0.066954 0.066954
v 0.066954 -0.066954 -0.066954
v 0.066954 0.066954 -0.066954
v -0.066954 -0.066954 0.066954
v -0.066954 -0.066954 0.066954
v -0.066954 0.066954 0.066954
v -0.066954 0.066954 0.066954
v -0.066954 0.066954 -0.066954
v -0.066954 0.066954 -0.066954
v -0.066954 -0.066954 -0.066954
v -0.066954 -0.066954 -0.066954
v 0.066954 0.066954 -0.066954
v 0.066954 0.066954 -0.066954
v 0.066954 -0.066954 -0.066954
v 0.066954 -0.066954 -0.066954
v 0.066954 0.066954 0.066954
v 0.066954 0.066954 0.066954
v 0.066954 -0.066954 0.066954
v 0.066954 -0.066954 0.066954
vt 0.0002 0.3335
vt 0.3331 0.6665
vt 0.3331 0.3335
vt 0.0002 0.6669
vt 0.3331 0.9998
vt 0.3331 0.6669
vt 0.9998 0.0002
vt 0.6669 0.3331
vt 0.6669 0.0002
vt 0.3331 0.0002
vt 0.0002 0.3331
vt 0.0002 0.0002
vt 0.6665 0.3335
vt 0.3335 0.6665
vt 0.6665 0.6665
vt 0.3335 0.0002
vt 0.6665 0.3331
vt 0.3335 0.3331
vt 0.0002 0.6665
vt 0.0002 0.9998
vt 0.9998 0.3331
vt 0.3331 0.3331
vt 0.3335 0.3335
vt 0.6665 0.0002
vn -1.0000 0.0000 0.0000
vn 0.0000 0.0000 -1.0000
vn 1.0000 0.0000 0.0000
vn 0.0000 0.0000 1.0000
vn 0.0000 -1.0000 0.0000
vn 0.0000 1.0000 0.0000
s 1
f 13/1/1 9/2/1 11/3/1
f 17/4/2 16/5/2 14/6/2
f 21/7/3 20/8/3 18/9/3
f 12/10/4 24/11/4 22/12/4
f 3/13/5 5/14/5 1/15/5
f 8/16/6 2/17/6 6/18/6
f 13/1/1 15/19/1 9/2/1
f 17/4/2 19/20/2 16/5/2
f 21/7/3 23/21/3 20/8/3
f 12/10/4 10/22/4 24/11/4
f 3/13/5 7/23/5 5/14/5
f 8/16/6 4/24/6 2/17/6
