# Blender v2.78 (sub 0) OBJ File: ''
# www.blender.org
o Plane.001
v -0.499924 0.000000 0.499925
v 0.499924 0.000000 -0.499925
v -0.499924 1.000000 0.499925
v 0.499924 1.000000 -0.499925
v 0.499924 0.000000 -0.499925
v -0.499924 0.000000 0.499925
v 0.499924 1.000000 -0.499925
v -0.499924 1.000000 0.499925
v 0.499925 0.000000 0.499924
v -0.499925 0.000000 -0.499924
v 0.499925 1.000000 0.499924
v -0.499925 1.000000 -0.499924
v -0.499925 0.000000 -0.499924
v 0.499925 0.000000 0.499924
v -0.499925 1.000000 -0.499924
v 0.499925 1.000000 0.499924
vt 1.0000 1.0000
vt 0.0000 0.0000
vt 1.0000 0.0000
vt 1.0000 1.0000
vt 0.0000 0.0000
vt 1.0000 0.0000
vt 1.0000 1.0000
vt 0.0000 0.0000
vt 1.0000 0.0000
vt 1.0000 1.0000
vt 0.0000 0.0000
vt 1.0000 0.0000
vt 0.0000 1.0000
vt 0.0000 1.0000
vt 0.0000 1.0000
vt 0.0000 1.0000
vn 0.7071 -0.0000 0.7071
vn -0.7071 -0.0000 -0.7071
vn 0.7071 -0.0000 -0.7071
vn -0.7071 -0.0000 0.7071
s off
f 2/1/1 3/2/1 1/3/1
f 6/4/2 7/5/2 5/6/2
f 10/7/3 11/8/3 9/9/3
f 14/10/4 15/11/4 13/12/4
f 2/1/1 4/13/1 3/2/1
f 6/4/2 8/14/2 7/5/2
f 10/7/3 12/15/3 11/8/3
f 14/10/4 16/16/4 15/11/4
