# Blender v2.78 (sub 0) OBJ File: ''
# www.blender.org
o Cube.002_Cube.003
v -0.010000 0.000384 0.010000
v -0.010000 0.130384 0.010000
v -0.010000 0.000384 -0.010000
v -0.010000 0.130384 -0.010000
v 0.010000 0.000384 0.010000
v 0.010000 0.130384 0.010000
v 0.010000 0.000384 -0.010000
v 0.010000 0.130384 -0.010000
v -0.009000 0.131219 0.009000
v -0.009000 0.261219 0.009000
v -0.009000 0.131219 -0.009000
v -0.009000 0.261219 -0.009000
v 0.009000 0.131219 0.009000
v 0.009000 0.261219 0.009000
v 0.009000 0.131219 -0.009000
v 0.009000 0.261219 -0.009000
v -0.007200 0.259772 0.007200
v -0.007200 0.389772 0.007200
v -0.007200 0.259772 -0.007200
v -0.007200 0.389772 -0.007200
v 0.007200 0.259772 0.007200
v 0.007200 0.389772 0.007200
v 0.007200 0.259772 -0.007200
v 0.007200 0.389772 -0.007200
vt 0.3331 0.3335
vt 0.0002 0.6665
vt 0.3331 0.6665
vt 0.3331 0.6669
vt 0.0002 0.9998
vt 0.3331 0.9998
vt 0.6669 0.0002
vt 0.9998 0.3331
vt 0.6669 0.3331
vt 0.0002 0.0002
vt 0.3331 0.3331
vt 0.0002 0.3331
vt 0.3335 0.3335
vt 0.6665 0.6665
vt 0.6665 0.3335
vt 0.6665 0.0002
vt 0.3335 0.3331
vt 0.3335 0.0002
vt 0.3331 0.3335
vt 0.0002 0.6665
vt 0.3331 0.6665
vt 0.3331 0.6669
vt 0.0002 0.9998
vt 0.3331 0.9998
vt 0.6669 0.0002
vt 0.9998 0.3331
vt 0.6669 0.3331
vt 0.0002 0.0002
vt 0.3331 0.3331
vt 0.0002 0.3331
vt 0.3335 0.3335
vt 0.6665 0.6665
vt 0.6665 0.3335
vt 0.6665 0.0002
vt 0.3335 0.3331
vt 0.3335 0.0002
vt 0.3331 0.3335
vt 0.0002 0.6665
vt 0.3331 0.6665
vt 0.3331 0.6669
vt 0.0002 0.9998
vt 0.3331 0.9998
vt 0.6669 0.0002
vt 0.9998 0.3331
vt 0.6669 0.3331
vt 0.0002 0.0002
vt 0.3331 0.3331
vt 0.0002 0.3331
vt 0.3335 0.3335
vt 0.6665 0.6665
vt 0.6665 0.3335
vt 0.6665 0.0002
vt 0.3335 0.3331
vt 0.3335 0.0002
vt 0.0002 0.3335
vt 0.0002 0.6669
vt 0.9998 0.0002
vt 0.3331 0.0002
vt 0.3335 0.6665
vt 0.6665 0.3331
vt 0.0002 0.3335
vt 0.0002 0.6669
vt 0.9998 0.0002
vt 0.3331 0.0002
vt 0.3335 0.6665
vt 0.6665 0.3331
vt 0.0002 0.3335
vt 0.0002 0.6669
vt 0.9998 0.0002
vt 0.3331 0.0002
vt 0.3335 0.6665
vt 0.6665 0.3331
vn -1.0000 0.0000 0.0000
vn 0.0000 0.0000 -1.0000
vn 1.0000 0.0000 0.0000
vn 0.0000 0.0000 1.0000
vn 0.0000 -1.0000 0.0000
vn 0.0000 1.0000 0.0000
s off
f 2/1/1 3/2/1 1/3/1
f 4/4/2 7/5/2 3/6/2
f 8/7/3 5/8/3 7/9/3
f 6/10/4 1/11/4 5/12/4
f 7/13/5 1/14/5 3/15/5
f 4/16/6 6/17/6 8/18/6
f 10/19/1 11/20/1 9/21/1
f 12/22/2 15/23/2 11/24/2
f 16/25/3 13/26/3 15/27/3
f 14/28/4 9/29/4 13/30/4
f 15/31/5 9/32/5 11/33/5
f 12/34/6 14/35/6 16/36/6
f 18/37/1 19/38/1 17/39/1
f 20/40/2 23/41/2 19/42/2
f 24/43/3 21/44/3 23/45/3
f 22/46/4 17/47/4 21/48/4
f 23/49/5 17/50/5 19/51/5
f 20/52/6 22/53/6 24/54/6
f 2/1/1 4/55/1 3/2/1
f 4/4/2 8/56/2 7/5/2
f 8/7/3 6/57/3 5/8/3
f 6/10/4 2/58/4 1/11/4
f 7/13/5 5/59/5 1/14/5
f 4/16/6 2/60/6 6/17/6
f 10/19/1 12/61/1 11/20/1
f 12/22/2 16/62/2 15/23/2
f 16/25/3 14/63/3 13/26/3
f 14/28/4 10/64/4 9/29/4
f 15/31/5 13/65/5 9/32/5
f 12/34/6 10/66/6 14/35/6
f 18/37/1 20/67/1 19/38/1
f 20/40/2 24/68/2 23/41/2
f 24/43/3 22/69/3 21/44/3
f 22/46/4 18/70/4 17/47/4
f 23/49/5 21/71/5 17/50/5
f 20/52/6 18/72/6 22/53/6
