# Blender v2.78 (sub 0) OBJ File: ''
# www.blender.org
mtllib gun.mtl
o Cube.001
v -0.052230 -0.197087 0.463032
v -0.052230 -0.097087 0.463032
v -0.052230 -0.197087 0.363032
v -0.052230 -0.097087 0.363032
v 0.047770 -0.197087 0.463032
v 0.047770 -0.097087 0.463032
v 0.047770 -0.197087 0.363032
v 0.047770 -0.097087 0.363032
v -0.102313 -0.513107 0.659020
v -0.102313 0.026893 0.659020
v -0.102313 -0.513107 0.459020
v -0.102313 0.026893 0.459020
v 0.097687 -0.513107 0.659020
v 0.097687 0.026893 0.659020
v 0.097687 -0.513107 0.459020
v 0.097687 0.026893 0.459020
v 0.100000 -0.100000 -0.562500
v 0.100000 -0.100000 0.562500
v -0.100000 -0.100000 0.562500
v -0.100000 -0.100000 -0.562500
v 0.100000 0.100000 -0.562500
v 0.100000 0.100000 0.562500
v -0.100000 0.100000 0.562500
v -0.100000 0.100000 -0.562500
vt 0.7574 0.7134
vt 0.6686 0.7463
vt 0.7574 0.7463
vt 0.7574 0.7804
vt 0.6686 0.8133
vt 0.7574 0.8133
vt 0.7344 0.3569
vt 0.8232 0.3898
vt 0.7344 0.3898
vt 0.6686 0.7469
vt 0.7574 0.7798
vt 0.6686 0.7798
vt 0.5791 0.7134
vt 0.6680 0.8022
vt 0.6680 0.7134
vt 0.5785 0.7134
vt 0.4897 0.8022
vt 0.4897 0.7134
vt 0.8456 0.0003
vt 0.6680 0.1780
vt 0.8456 0.1780
vt 0.8456 0.1786
vt 0.6680 0.3562
vt 0.8456 0.3562
vt 0.4897 0.0003
vt 0.6673 0.1780
vt 0.4897 0.1780
vt 0.4897 0.1786
vt 0.6673 0.3562
vt 0.4897 0.3562
vt 0.4897 0.5351
vt 0.6673 0.7128
vt 0.6673 0.5351
vt 0.6673 0.3569
vt 0.4897 0.5345
vt 0.4897 0.3569
vt 0.3562 0.0003
vt 0.1786 0.9997
vt 0.3562 0.9997
vt 0.1780 0.9997
vt 0.0003 0.0003
vt 0.1780 0.0003
vt 0.3569 0.9997
vt 0.4227 0.0003
vt 0.4227 0.9997
vt 0.6680 0.5345
vt 0.7338 0.3569
vt 0.7338 0.5345
vt 0.4233 0.0003
vt 0.4891 0.9997
vt 0.4891 0.0003
vt 0.7338 0.7128
vt 0.6680 0.5351
vt 0.6680 0.7128
vt 0.6686 0.7134
vt 0.6686 0.7804
vt 0.8232 0.3569
vt 0.7574 0.7469
vt 0.5791 0.8022
vt 0.5785 0.8022
vt 0.6680 0.0003
vt 0.6680 0.1786
vt 0.6673 0.0003
vt 0.6673 0.1786
vt 0.4897 0.7128
vt 0.6673 0.5345
vt 0.1786 0.0003
vt 0.0003 0.9997
vt 0.3569 0.0003
vt 0.6680 0.3569
vt 0.4233 0.9997
vt 0.7338 0.5351
vn -1.0000 0.0000 0.0000
vn 0.0000 0.0000 -1.0000
vn 1.0000 0.0000 0.0000
vn 0.0000 0.0000 1.0000
vn 0.0000 -1.0000 0.0000
vn 0.0000 1.0000 0.0000
usemtl Material
s off
f 2/1/1 3/2/1 1/3/1
f 4/4/2 7/5/2 3/6/2
f 8/7/3 5/8/3 7/9/3
f 6/10/4 1/11/4 5/12/4
f 7/13/5 1/14/5 3/15/5
f 4/16/6 6/17/6 8/18/6
f 10/19/1 11/20/1 9/21/1
f 12/22/2 15/23/2 11/24/2
f 16/25/3 13/26/3 15/27/3
f 14/28/4 9/29/4 13/30/4
f 15/31/5 9/32/5 11/33/5
f 12/34/6 14/35/6 16/36/6
f 18/37/5 20/38/5 17/39/5
f 21/40/6 23/41/6 22/42/6
f 21/43/3 18/44/3 17/45/3
f 22/46/4 19/47/4 18/48/4
f 23/49/1 20/50/1 19/51/1
f 17/52/2 24/53/2 21/54/2
f 2/1/1 4/55/1 3/2/1
f 4/4/2 8/56/2 7/5/2
f 8/7/3 6/57/3 5/8/3
f 6/10/4 2/58/4 1/11/4
f 7/13/5 5/59/5 1/14/5
f 4/16/6 2/60/6 6/17/6
f 10/19/1 12/61/1 11/20/1
f 12/22/2 16/62/2 15/23/2
f 16/25/3 14/63/3 13/26/3
f 14/28/4 10/64/4 9/29/4
f 15/31/5 13/65/5 9/32/5
f 12/34/6 10/66/6 14/35/6
f 18/37/5 19/67/5 20/38/5
f 21/40/6 24/68/6 23/41/6
f 21/43/3 22/69/3 18/44/3
f 22/46/4 23/70/4 19/47/4
f 23/49/1 24/71/1 20/50/1
f 17/52/2 20/72/2 24/53/2
