# Blender v2.78 (sub 0) OBJ File: ''
# www.blender.org
mtllib pick-90.mtl
o Cylinder
v 0.450000 1.075000 -0.075000
v 0.450000 0.925000 0.075000
v 0.450000 0.925000 -0.075000
v 0.450000 1.075000 0.075000
v -0.450000 0.925000 0.075000
v -0.450000 1.075000 0.075000
v -0.450000 0.925000 -0.075000
v -0.450000 1.075000 -0.075000
v 0.000000 1.000000 0.050000
v -0.009755 0.000000 0.049039
v 0.000000 0.000000 0.050000
v -0.009755 1.000000 0.049039
v -0.019134 0.000000 0.046194
v -0.019134 1.000000 0.046194
v -0.027779 0.000000 0.041573
v -0.027779 1.000000 0.041573
v -0.035355 0.000000 0.035355
v -0.035355 1.000000 0.035355
v -0.041573 0.000000 0.027779
v -0.041573 1.000000 0.027779
v -0.046194 0.000000 0.019134
v -0.046194 1.000000 0.019134
v -0.049039 0.000000 0.009755
v -0.049039 1.000000 0.009755
v -0.050000 0.000000 0.000000
v -0.050000 1.000000 0.000000
v -0.049039 0.000000 -0.009755
v -0.049039 1.000000 -0.009755
v -0.046194 0.000000 -0.019134
v -0.046194 1.000000 -0.019134
v -0.041573 0.000000 -0.027779
v -0.041573 1.000000 -0.027779
v -0.035355 0.000000 -0.035355
v -0.035355 1.000000 -0.035355
v -0.027779 0.000000 -0.041573
v -0.027779 1.000000 -0.041573
v -0.019134 0.000000 -0.046194
v -0.019134 1.000000 -0.046194
v -0.009755 0.000000 -0.049039
v -0.009755 1.000000 -0.049039
v -0.000000 0.000000 -0.050000
v 0.000000 1.000000 -0.050000
v 0.009755 -0.000000 -0.049039
v 0.009755 1.000000 -0.049039
v 0.019134 -0.000000 -0.046194
v 0.019134 1.000000 -0.046194
v 0.027779 -0.000000 -0.041573
v 0.027779 1.000000 -0.041573
v 0.035355 -0.000000 -0.035355
v 0.035355 1.000000 -0.035355
v 0.041573 -0.000000 -0.027778
v 0.041573 1.000000 -0.027778
v 0.046194 -0.000000 -0.019134
v 0.046194 1.000000 -0.019134
v 0.049039 -0.000000 -0.009754
v 0.049039 1.000000 -0.009754
v 0.050000 -0.000000 -0.000000
v 0.050000 1.000000 -0.000000
v 0.049039 -0.000000 0.009755
v 0.049039 1.000000 0.009755
v 0.046194 -0.000000 0.019134
v 0.046194 1.000000 0.019134
v 0.041573 -0.000000 0.027779
v 0.041573 1.000000 0.027779
v 0.035355 -0.000000 0.035355
v 0.035355 1.000000 0.035355
v 0.027778 -0.000000 0.041574
v 0.027778 1.000000 0.041574
v 0.019134 -0.000000 0.046194
v 0.019134 1.000000 0.046194
v 0.009754 -0.000000 0.049039
v 0.009754 1.000000 0.049039
vt 0.3885 0.4468
vt 0.2219 0.4635
vt 0.3885 0.4635
vt 0.9998 0.3510
vt 0.0002 0.3677
vt 0.9998 0.3677
vt 0.2219 0.4638
vt 0.3885 0.4805
vt 0.2219 0.4805
vt 0.0002 0.3340
vt 0.9998 0.3507
vt 0.0002 0.3507
vt 0.0002 0.1671
vt 0.9998 0.3337
vt 0.9998 0.1671
vt 0.9998 0.0002
vt 0.0002 0.1668
vt 0.0002 0.0002
vt 0.3333 0.4073
vt 0.4443 0.4181
vt 0.4443 0.4073
vt 0.3333 0.4181
vt 0.4443 0.4285
vt 0.3333 0.4285
vt 0.4443 0.4381
vt 0.3333 0.4381
vt 0.4443 0.4465
vt 0.3333 0.4465
vt 0.4443 0.4381
vt 0.3333 0.4381
vt 0.4443 0.4285
vt 0.3333 0.4285
vt 0.4443 0.4181
vt 0.3333 0.4181
vt 0.4443 0.4073
vt 0.3333 0.4073
vt 0.4443 0.3964
vt 0.3333 0.3964
vt 0.4443 0.3860
vt 0.3333 0.3860
vt 0.4443 0.3764
vt 0.3333 0.3764
vt 0.4443 0.3680
vt 0.2219 0.4465
vt 0.3330 0.4381
vt 0.3330 0.4465
vt 0.2219 0.4381
vt 0.3330 0.4285
vt 0.2219 0.4285
vt 0.3330 0.4181
vt 0.2219 0.4181
vt 0.3330 0.4073
vt 0.2219 0.4073
vt 0.3330 0.3964
vt 0.2219 0.3964
vt 0.3330 0.3860
vt 0.2219 0.3860
vt 0.3330 0.3764
vt 0.2219 0.3764
vt 0.3330 0.3680
vt 0.2219 0.3680
vt 0.3330 0.3764
vt 0.2219 0.3764
vt 0.3330 0.3860
vt 0.2219 0.3860
vt 0.3330 0.3964
vt 0.2219 0.3964
vt 0.3330 0.4073
vt 0.2219 0.4073
vt 0.3330 0.4181
vt 0.2219 0.4181
vt 0.3330 0.4285
vt 0.2219 0.4285
vt 0.3330 0.4381
vt 0.2219 0.4381
vt 0.3330 0.4465
vt 0.3333 0.3680
vt 0.4443 0.3764
vt 0.4443 0.3680
vt 0.3333 0.3764
vt 0.4443 0.3860
vt 0.1311 0.4662
vt 0.1234 0.3880
vt 0.2092 0.4585
vt 0.3333 0.3860
vt 0.4443 0.3964
vt 0.3333 0.3964
vt 0.0716 0.4764
vt 0.1086 0.4071
vt 0.0393 0.3701
vt 0.2219 0.4468
vt 0.0002 0.3510
vt 0.3885 0.4638
vt 0.9998 0.3340
vt 0.0002 0.3337
vt 0.9998 0.1668
vt 0.3333 0.3680
vt 0.2219 0.4465
vt 0.2015 0.3803
vt 0.2092 0.3880
vt 0.2153 0.3971
vt 0.2194 0.4071
vt 0.2216 0.4178
vt 0.2216 0.4287
vt 0.2194 0.4394
vt 0.2153 0.4494
vt 0.2015 0.4662
vt 0.1925 0.4722
vt 0.1824 0.4764
vt 0.1717 0.4785
vt 0.1608 0.4785
vt 0.1502 0.4764
vt 0.1401 0.4722
vt 0.1234 0.4585
vt 0.1173 0.4494
vt 0.1131 0.4394
vt 0.1110 0.4287
vt 0.1110 0.4178
vt 0.1131 0.4071
vt 0.1173 0.3971
vt 0.1311 0.3803
vt 0.1401 0.3743
vt 0.1502 0.3701
vt 0.1608 0.3680
vt 0.1717 0.3680
vt 0.1824 0.3701
vt 0.1925 0.3743
vt 0.0292 0.3743
vt 0.0202 0.3803
vt 0.0125 0.3880
vt 0.0064 0.3971
vt 0.0023 0.4071
vt 0.0002 0.4178
vt 0.0002 0.4287
vt 0.0023 0.4394
vt 0.0064 0.4494
vt 0.0125 0.4585
vt 0.0202 0.4662
vt 0.0292 0.4722
vt 0.0393 0.4764
vt 0.0500 0.4785
vt 0.0609 0.4785
vt 0.0816 0.4722
vt 0.0907 0.4662
vt 0.0984 0.4585
vt 0.1044 0.4494
vt 0.1086 0.4394
vt 0.1107 0.4287
vt 0.1107 0.4178
vt 0.1044 0.3971
vt 0.0984 0.3880
vt 0.0907 0.3803
vt 0.0816 0.3743
vt 0.0716 0.3701
vt 0.0609 0.3680
vt 0.0500 0.3680
vn 1.0000 -0.0000 -0.0000
vn 0.0000 -0.0000 1.0000
vn -1.0000 0.0000 0.0000
vn -0.0000 0.0000 -1.0000
vn 0.0000 -1.0000 0.0000
vn 0.0000 1.0000 0.0000
vn -0.0980 0.0000 0.9952
vn -0.2903 0.0000 0.9569
vn -0.4714 0.0000 0.8819
vn -0.6344 0.0000 0.7730
vn -0.7730 0.0000 0.6344
vn -0.8819 0.0000 0.4714
vn -0.9569 0.0000 0.2903
vn -0.9952 0.0000 0.0980
vn -0.9952 0.0000 -0.0980
vn -0.9569 0.0000 -0.2903
vn -0.8819 0.0000 -0.4714
vn -0.7730 0.0000 -0.6344
vn -0.6344 0.0000 -0.7730
vn -0.4714 0.0000 -0.8819
vn -0.2903 0.0000 -0.9569
vn -0.0980 0.0000 -0.9952
vn 0.0980 -0.0000 -0.9952
vn 0.2903 -0.0000 -0.9569
vn 0.4714 -0.0000 -0.8819
vn 0.6344 -0.0000 -0.7730
vn 0.7730 -0.0000 -0.6344
vn 0.8819 -0.0000 -0.4715
vn 0.9570 -0.0000 -0.2902
vn 0.9952 -0.0000 -0.0980
vn 0.9952 -0.0000 0.0980
vn 0.9569 -0.0000 0.2903
vn 0.8819 -0.0000 0.4714
vn 0.7730 -0.0000 0.6344
vn 0.6344 -0.0000 0.7730
vn 0.4714 -0.0000 0.8819
vn 0.2902 -0.0000 0.9570
vn 0.0980 -0.0000 0.9952
vn 0.0000 1.0000 0.0001
vn 0.0000 1.0000 -0.0001
usemtl None
s 1
f 1/1/1 2/2/1 3/3/1
f 4/4/2 5/5/2 2/6/2
f 6/7/3 7/8/3 5/9/3
f 8/10/4 3/11/4 7/12/4
f 5/13/5 3/14/5 2/15/5
f 4/16/6 8/17/6 6/18/6
f 9/19/7 10/20/7 11/21/7
f 12/22/8 13/23/8 10/20/8
f 14/24/9 15/25/9 13/23/9
f 16/26/10 17/27/10 15/25/10
f 18/28/11 19/29/11 17/27/11
f 20/30/12 21/31/12 19/29/12
f 22/32/13 23/33/13 21/31/13
f 24/34/14 25/35/14 23/33/14
f 26/36/15 27/37/15 25/35/15
f 28/38/16 29/39/16 27/37/16
f 30/40/17 31/41/17 29/39/17
f 32/42/18 33/43/18 31/41/18
f 34/44/19 35/45/19 33/46/19
f 36/47/20 37/48/20 35/45/20
f 38/49/21 39/50/21 37/48/21
f 40/51/22 41/52/22 39/50/22
f 42/53/23 43/54/23 41/52/23
f 44/55/24 45/56/24 43/54/24
f 46/57/25 47/58/25 45/56/25
f 48/59/26 49/60/26 47/58/26
f 50/61/27 51/62/27 49/60/27
f 52/63/28 53/64/28 51/62/28
f 54/65/29 55/66/29 53/64/29
f 56/67/30 57/68/30 55/66/30
f 58/69/31 59/70/31 57/68/31
f 60/71/32 61/72/32 59/70/32
f 62/73/33 63/74/33 61/72/33
f 64/75/34 65/76/34 63/74/34
f 66/77/35 67/78/35 65/79/35
f 68/80/36 69/81/36 67/78/36
f 46/82/6 30/83/6 62/84/6
f 70/85/37 71/86/37 69/81/37
f 72/87/38 11/21/38 71/86/38
f 39/88/5 55/89/5 71/90/5
f 1/1/1 4/91/1 2/2/1
f 4/4/2 6/92/2 5/5/2
f 6/7/3 8/93/3 7/8/3
f 8/10/4 1/94/4 3/11/4
f 5/13/5 7/95/5 3/14/5
f 4/16/6 1/96/6 8/17/6
f 9/19/7 12/22/7 10/20/7
f 12/22/8 14/24/8 13/23/8
f 14/24/9 16/26/9 15/25/9
f 16/26/10 18/28/10 17/27/10
f 18/28/11 20/30/11 19/29/11
f 20/30/12 22/32/12 21/31/12
f 22/32/13 24/34/13 23/33/13
f 24/34/14 26/36/14 25/35/14
f 26/36/15 28/38/15 27/37/15
f 28/38/16 30/40/16 29/39/16
f 30/40/17 32/42/17 31/41/17
f 32/42/18 34/97/18 33/43/18
f 34/44/19 36/47/19 35/45/19
f 36/47/20 38/49/20 37/48/20
f 38/49/21 40/51/21 39/50/21
f 40/51/22 42/53/22 41/52/22
f 42/53/23 44/55/23 43/54/23
f 44/55/24 46/57/24 45/56/24
f 46/57/25 48/59/25 47/58/25
f 48/59/26 50/61/26 49/60/26
f 50/61/27 52/63/27 51/62/27
f 52/63/28 54/65/28 53/64/28
f 54/65/29 56/67/29 55/66/29
f 56/67/30 58/69/30 57/68/30
f 58/69/31 60/71/31 59/70/31
f 60/71/32 62/73/32 61/72/32
f 62/73/33 64/75/33 63/74/33
f 64/75/34 66/98/34 65/76/34
f 66/77/35 68/80/35 67/78/35
f 68/80/36 70/85/36 69/81/36
f 14/99/6 12/100/39 9/101/40
f 9/101/40 72/102/6 14/99/6
f 70/103/6 68/104/6 66/105/6
f 66/105/6 64/106/6 62/84/6
f 62/84/6 60/107/6 58/108/6
f 58/108/6 56/109/6 62/84/6
f 54/110/6 52/111/6 50/112/6
f 50/112/6 48/113/6 46/82/6
f 46/82/6 44/114/40 42/115/39
f 42/115/39 40/116/6 46/82/6
f 38/117/6 36/118/6 30/83/6
f 34/119/6 32/120/6 30/83/6
f 30/83/6 28/121/6 26/122/6
f 26/122/6 24/123/6 30/83/6
f 22/124/6 20/125/6 18/126/6
f 18/126/6 16/127/6 22/124/6
f 14/99/6 72/102/6 70/103/6
f 70/103/6 66/105/6 14/99/6
f 62/84/6 56/109/6 54/110/6
f 54/110/6 50/112/6 62/84/6
f 46/82/6 40/116/6 38/117/6
f 36/118/6 34/119/6 30/83/6
f 30/83/6 24/123/6 22/124/6
f 22/124/6 16/127/6 14/99/6
f 14/99/6 66/105/6 62/84/6
f 62/84/6 50/112/6 46/82/6
f 46/82/6 38/117/6 30/83/6
f 30/83/6 22/124/6 14/99/6
f 14/99/6 62/84/6 30/83/6
f 70/85/37 72/87/37 71/86/37
f 72/87/38 9/19/38 11/21/38
f 71/90/5 11/128/5 10/129/5
f 10/129/5 13/130/5 15/131/5
f 15/131/5 17/132/5 19/133/5
f 19/133/5 21/134/5 15/131/5
f 23/135/5 25/136/5 27/137/5
f 27/137/5 29/138/5 23/135/5
f 31/139/5 33/140/5 35/141/5
f 35/141/5 37/142/5 39/88/5
f 39/88/5 41/143/5 43/144/5
f 43/144/5 45/145/5 47/146/5
f 47/146/5 49/147/5 55/89/5
f 51/148/5 53/149/5 55/89/5
f 55/89/5 57/150/5 59/151/5
f 59/151/5 61/152/5 55/89/5
f 63/153/5 65/154/5 71/90/5
f 67/155/5 69/156/5 71/90/5
f 71/90/5 10/129/5 15/131/5
f 15/131/5 21/134/5 23/135/5
f 23/135/5 29/138/5 31/139/5
f 31/139/5 35/141/5 39/88/5
f 39/88/5 43/144/5 47/146/5
f 49/147/5 51/148/5 55/89/5
f 55/89/5 61/152/5 63/153/5
f 65/154/5 67/155/5 71/90/5
f 71/90/5 15/131/5 23/135/5
f 23/135/5 31/139/5 71/90/5
f 39/88/5 47/146/5 55/89/5
f 55/89/5 63/153/5 71/90/5
f 71/90/5 31/139/5 39/88/5
