# Blender v2.77 (sub 0) OBJ File: ''
# www.blender.org
o Cone
v 0.103621 1.544289 -0.581821
v -0.042966 -0.002966 0.181049
v -0.048013 1.548705 -0.586902
v -0.197727 1.552975 -0.562291
v -0.339767 1.556935 -0.508933
v -0.468675 1.560434 -0.428879
v -0.579497 1.563335 -0.325205
v -0.667974 1.565529 -0.201896
v -0.730706 1.566930 -0.063690
v -0.765283 1.567485 0.084101
v -0.770375 1.567173 0.235798
v -0.745787 1.566005 0.385572
v -0.692463 1.564027 0.527667
v -0.612454 1.561314 0.656621
v -0.508833 1.557971 0.767480
v -0.385583 1.554125 0.855983
v -0.247441 1.549926 0.918730
v -0.099714 1.545534 0.953308
v 0.051920 1.541119 0.958388
v 0.201634 1.536849 0.933777
v 0.343674 1.532888 0.880419
v 0.472582 1.529390 0.800365
v 0.583404 1.526489 0.696691
v 0.671881 1.524295 0.573382
v 0.734613 1.522894 0.435176
v 0.769190 1.522339 0.287384
v 0.774282 1.522651 0.135687
v 0.749693 1.523819 -0.014087
v 0.696370 1.525797 -0.156181
v 0.616360 1.528510 -0.285136
v 0.512739 1.531853 -0.395995
v 0.389489 1.535698 -0.484498
v 0.251346 1.539898 -0.547244
v 0.126402 3.297279 0.190614
v 0.551725 3.446625 0.499626
v -0.036053 3.446625 0.690609
v 0.850010 3.850060 0.716339
v 0.977050 3.771543 0.190614
v -0.399327 3.446627 0.190614
v -0.036053 3.446625 -0.309381
v 0.551725 3.446625 -0.118397
v 1.077460 4.297279 0.499627
v -0.149986 3.850059 1.041263
v 0.389271 3.771542 0.999626
v 0.126402 4.297279 1.190614
v -0.768024 3.850063 0.190614
v -0.561787 3.771543 0.690611
v -0.824655 4.297279 0.499627
v -0.149986 3.850059 -0.660035
v -0.561787 3.771543 -0.309383
v -0.461383 4.297279 -0.618402
v 0.850010 3.850060 -0.335111
v 0.389271 3.771542 -0.618397
v 0.714188 4.297279 -0.618403
v 0.714188 4.297279 0.999631
v -0.461383 4.297279 0.999631
v -0.824655 4.297279 -0.118399
v 0.126402 4.297279 -0.809386
v 1.077460 4.297279 -0.118399
v 0.402790 4.744499 1.041263
v 0.814592 4.823015 0.690611
v 0.288858 5.147933 0.690609
v -0.597205 4.744498 0.716339
v -0.136466 4.823017 0.999626
v -0.298920 5.147933 0.499626
v -0.597205 4.744499 -0.335111
v -0.724245 4.823015 0.190614
v -0.298920 5.147933 -0.118397
v 0.402790 4.744499 -0.660035
v -0.136466 4.823017 -0.618398
v 0.288858 5.147933 -0.309381
v 1.020829 4.744495 0.190614
v 0.814592 4.823015 -0.309383
v 0.652132 5.147931 0.190614
v 0.126402 5.297279 0.190614
v -0.789881 3.489367 0.933342
v -0.829566 3.637496 -0.597721
v -0.829566 1.637495 -0.597721
v -0.749586 1.574607 1.005638
v 0.986527 3.523999 -0.596807
v 0.986527 1.523999 -0.596807
v 1.040577 3.522352 0.965782
v 1.080873 1.607591 1.038079
vt 0.1765 0.1765
vt 0.0883 0.2405
vt 0.2102 0.2801
vt 0.8984 0.8401
vt 0.9020 0.9349
vt 0.8127 0.9093
vt 0.2855 0.1765
vt 0.2102 0.0729
vt 0.0883 0.1125
vt 0.8127 0.7829
vt 0.4054 0.4110
vt 0.5165 0.3906
vt 0.4660 0.5015
vt 0.7105 0.5909
vt 0.7916 0.6574
vt 0.8127 0.5434
vt 0.0861 0.4376
vt 0.0002 0.4245
vt 0.0250 0.5326
vt 0.2932 0.4301
vt 0.1972 0.4173
vt 0.2684 0.5237
vt 0.9020 0.7304
vt 0.3443 0.5059
vt 0.7023 0.4785
vt 0.1467 0.5281
vt 0.7105 0.9505
vt 0.6129 0.9003
vt 0.7023 0.8478
vt 0.6543 0.0855
vt 0.7269 0.0002
vt 0.7269 0.1092
vt 0.6539 0.2467
vt 0.5748 0.3261
vt 0.5832 0.2175
vt 0.7105 0.3759
vt 0.8127 0.4171
vt 0.7916 0.3266
vt 0.2073 0.6187
vt 0.0962 0.6390
vt 0.1868 0.7031
vt 0.7105 0.7355
vt 0.6129 0.7739
vt 0.6681 0.6634
vt 0.3766 0.2016
vt 0.4254 0.0832
vt 0.4825 0.1760
vt 0.3195 0.1087
vt 0.3854 0.0181
vt 0.5531 0.0930
vt 0.4961 0.0002
vt 0.6027 0.0348
vt 0.6539 0.1346
vt 0.8984 0.4863
vt 0.9020 0.3915
vt 0.4741 0.2846
vt 0.4155 0.6124
vt 0.5266 0.5920
vt 0.5061 0.6765
vt 0.3682 0.3102
vt 0.7916 0.6689
vt 0.2932 0.6318
vt 0.0002 0.6262
vt 0.3195 0.5996
vt 0.5878 0.4971
vt 0.6125 0.6052
vt 0.6129 0.4260
vt 0.6129 0.5524
vt 0.9020 0.5960
vt 0.3195 0.3978
vt 0.6125 0.4034
vt 0.1220 0.0088
vt 0.0265 0.0675
vt 0.1066 0.3532
vt 0.3191 0.0729
vt 0.2338 0.0002
vt 0.6681 0.6630
vt 0.3191 0.2801
vt 0.2338 0.3528
vt 0.7916 0.9998
vt 0.0002 0.1765
vt 0.4260 0.3266
vt 0.1220 0.3442
vt 0.0265 0.2855
vt 0.4148 0.8532
vt 0.0002 0.8532
vt 0.4148 0.8937
vt 0.4148 0.9326
vt 0.4148 0.9684
vt 0.4148 0.9998
vt 0.8297 0.7063
vt 0.4151 0.5597
vt 0.8297 0.6749
vt 0.8297 0.6390
vt 0.8297 0.6002
vt 0.8297 0.5597
vt 0.8297 0.5193
vt 0.8297 0.4804
vt 0.8297 0.4446
vt 0.8297 0.4131
vt 0.8277 0.2933
vt 0.4131 0.1468
vt 0.8277 0.2619
vt 0.8277 0.2261
vt 0.8277 0.1872
vt 0.8277 0.1468
vt 0.8277 0.1063
vt 0.8277 0.0674
vt 0.8277 0.0316
vt 0.8277 0.0002
vt 0.4148 0.4131
vt 0.0002 0.5597
vt 0.4148 0.4446
vt 0.4148 0.4804
vt 0.4148 0.5193
vt 0.4148 0.5597
vt 0.4148 0.6002
vt 0.4148 0.6390
vt 0.4148 0.6749
vt 0.4148 0.7063
vt 0.4148 0.7067
vt 0.4148 0.7381
vt 0.4148 0.7739
vt 0.4148 0.8128
vt 0.3380 0.3667
vt 0.4048 0.1463
vt 0.1463 0.0081
vt 0.1088 0.0237
vt 0.0750 0.0462
vt 0.0462 0.0750
vt 0.0237 0.1088
vt 0.0081 0.1463
vt 0.0002 0.1862
vt 0.0002 0.2268
vt 0.0081 0.2667
vt 0.0237 0.3042
vt 0.0462 0.3380
vt 0.0750 0.3667
vt 0.1088 0.3893
vt 0.1463 0.4048
vt 0.1862 0.4128
vt 0.2268 0.4128
vt 0.2667 0.4048
vt 0.3042 0.3893
vt 0.3667 0.3380
vt 0.3893 0.3042
vt 0.4048 0.2667
vt 0.4128 0.2268
vt 0.4128 0.1862
vt 0.3893 0.1088
vt 0.3667 0.0750
vt 0.3380 0.0462
vt 0.3042 0.0237
vt 0.2667 0.0081
vt 0.2268 0.0002
vt 0.1862 0.0002
vt 0.3627 0.7360
vt 0.6562 0.3809
vt 0.3488 0.3689
vt 0.3484 0.3836
vt 0.0002 0.0220
vt 0.0002 0.4054
vt 0.3136 0.7893
vt 0.0002 0.4219
vt 0.3136 0.4058
vt 0.6998 0.3674
vt 0.3488 0.0013
vt 0.6998 0.0002
vt 0.6627 0.7198
vt 0.9701 0.3871
vt 0.6566 0.3689
vt 0.9998 0.0107
vt 0.7063 0.3511
vt 0.7002 0.0002
vt 0.6562 0.7644
vt 0.3484 0.0002
vt 0.0141 0.7889
vt 0.3488 0.3684
vt 0.9701 0.7353
vt 0.9998 0.3589
vn 0.1024 -0.9435 0.3151
vn 0.7002 -0.6617 0.2680
vn -0.2680 -0.9435 0.1947
vn -0.2680 -0.9435 -0.1947
vn 0.1024 -0.9435 -0.3151
vn 0.9050 -0.3304 0.2680
vn 0.0247 -0.3304 0.9435
vn -0.8897 -0.3304 0.3151
vn -0.5746 -0.3304 -0.7488
vn 0.5346 -0.3304 -0.7779
vn 0.8026 -0.1256 0.5831
vn -0.3066 -0.1256 0.9435
vn -0.9921 -0.1256 0.0000
vn -0.3066 -0.1256 -0.9435
vn 0.8026 -0.1256 -0.5831
vn 0.4089 0.6617 0.6284
vn -0.4713 0.6617 0.5831
vn -0.7002 0.6617 -0.2680
vn 0.0385 0.6617 -0.7488
vn 0.7240 0.6617 -0.1947
vn 0.2680 0.9435 -0.1947
vn 0.4911 0.7947 -0.3568
vn 0.4089 0.6617 -0.6284
vn -0.1024 0.9435 -0.3151
vn -0.1876 0.7947 -0.5773
vn -0.4713 0.6617 -0.5831
vn -0.3313 0.9435 0.0000
vn -0.6071 0.7947 0.0000
vn -0.7002 0.6617 0.2680
vn -0.1024 0.9435 0.3151
vn -0.1876 0.7947 0.5773
vn 0.0385 0.6617 0.7488
vn 0.2680 0.9435 0.1947
vn 0.4911 0.7947 0.3568
vn 0.7240 0.6617 0.1947
vn 0.8897 0.3304 -0.3151
vn 0.7947 0.1876 -0.5773
vn 0.5746 0.3304 -0.7488
vn -0.0247 0.3304 -0.9435
vn -0.3035 0.1876 -0.9342
vn -0.5346 0.3304 -0.7779
vn -0.9050 0.3304 -0.2680
vn -0.9822 0.1876 0.0000
vn -0.9050 0.3304 0.2680
vn -0.5346 0.3304 0.7779
vn -0.3035 0.1876 0.9342
vn -0.0247 0.3304 0.9435
vn 0.5746 0.3304 0.7488
vn 0.7947 0.1876 0.5773
vn 0.8897 0.3304 0.3151
vn 0.3066 0.1256 -0.9435
vn 0.3035 -0.1876 -0.9342
vn 0.0247 -0.3304 -0.9435
vn -0.8026 0.1256 -0.5831
vn -0.7947 -0.1876 -0.5773
vn -0.8897 -0.3304 -0.3151
vn -0.8026 0.1256 0.5831
vn -0.7947 -0.1876 0.5773
vn -0.5746 -0.3304 0.7488
vn 0.3066 0.1256 0.9435
vn 0.3035 -0.1876 0.9342
vn 0.5346 -0.3304 0.7779
vn 0.9921 0.1256 0.0000
vn 0.9822 -0.1876 0.0000
vn 0.9050 -0.3304 -0.2680
vn 0.4713 -0.6617 -0.5831
vn 0.1876 -0.7947 -0.5773
vn -0.0385 -0.6617 -0.7488
vn -0.4089 -0.6617 -0.6284
vn -0.4911 -0.7947 -0.3568
vn -0.7240 -0.6617 -0.1947
vn -0.7240 -0.6617 0.1947
vn -0.4911 -0.7947 0.3568
vn -0.4089 -0.6617 0.6284
vn 0.7002 -0.6617 -0.2680
vn 0.6071 -0.7947 0.0000
vn 0.3313 -0.9435 0.0000
vn -0.0385 -0.6617 0.7488
vn 0.1876 -0.7947 0.5773
vn 0.4713 -0.6617 0.5831
vn 0.0171 -0.4435 -0.8961
vn -0.1580 -0.4384 -0.8848
vn -0.3274 -0.4336 -0.8395
vn -0.4849 -0.4293 -0.7620
vn -0.6241 -0.4256 -0.6552
vn -0.7399 -0.4226 -0.5234
vn -0.8278 -0.4205 -0.3715
vn -0.8843 -0.4194 -0.2053
vn -0.9073 -0.4193 -0.0313
vn -0.8960 -0.4201 0.1438
vn -0.8507 -0.4219 0.3134
vn -0.7733 -0.4247 0.4708
vn -0.6666 -0.4282 0.6102
vn -0.5348 -0.4324 0.7260
vn -0.3830 -0.4370 0.8138
vn -0.2169 -0.4420 0.8704
vn -0.0430 -0.4471 0.8934
vn 0.1321 -0.4522 0.8821
vn 0.3016 -0.4570 0.8368
vn 0.4590 -0.4613 0.7593
vn 0.5983 -0.4650 0.6525
vn 0.7141 -0.4680 0.5207
vn 0.8019 -0.4701 0.3688
vn 0.8584 -0.4712 0.2026
vn 0.8815 -0.4713 0.0286
vn 0.8702 -0.4705 -0.1465
vn 0.8249 -0.4687 -0.3161
vn 0.7474 -0.4659 -0.4735
vn 0.6408 -0.4624 -0.6129
vn 0.5090 -0.4582 -0.7287
vn 0.3571 -0.4536 -0.8166
vn 0.1910 -0.4486 -0.8731
vn 0.0290 0.9996 0.0030
vn 0.0290 0.9996 0.0031
vn -0.9993 -0.0082 0.0358
vn -0.9992 -0.0109 0.0391
vn -0.9986 -0.0192 0.0491
vn 0.0005 0.0000 -1.0000
vn 0.9989 0.0108 -0.0449
vn 0.9988 0.0083 -0.0479
vn 0.9983 -0.0000 -0.0576
vn -0.0184 0.0373 0.9991
vn -0.0254 -0.9997 0.0041
vn -0.0193 -0.9998 0.0107
vn 0.0171 -0.9986 0.0501
vn 0.0176 0.9989 0.0430
vn 0.0260 0.9983 0.0528
vn -0.0180 0.9998 0.0017
vn -0.9997 0.0000 0.0259
vn 0.9992 0.0197 -0.0345
vn -0.0623 -0.9974 -0.0360
vn 0.0620 0.9936 0.0945
s 1
f 34/1/1 35/2/1 36/3/1
f 37/4/2 35/5/2 38/6/2
f 34/1/3 36/3/3 39/7/3
f 34/1/4 39/7/4 40/8/4
f 34/1/5 40/8/5 41/9/5
f 37/4/6 38/6/6 42/10/6
f 43/11/7 44/12/7 45/13/7
f 46/14/8 47/15/8 48/16/8
f 49/17/9 50/18/9 51/19/9
f 52/20/10 53/21/10 54/22/10
f 37/4/11 42/10/11 55/23/11
f 43/11/12 45/13/12 56/24/12
f 46/14/13 48/16/13 57/25/13
f 49/17/14 51/19/14 58/26/14
f 52/27/15 54/28/15 59/29/15
f 60/30/16 61/31/16 62/32/16
f 63/33/17 64/34/17 65/35/17
f 66/36/18 67/37/18 68/38/18
f 69/39/19 70/40/19 71/41/19
f 72/42/20 73/43/20 74/44/20
f 74/45/21 71/46/21 75/47/21
f 74/45/22 73/48/22 71/46/22
f 73/48/23 69/49/23 71/46/23
f 71/46/24 68/50/24 75/47/24
f 71/46/25 70/51/25 68/50/25
f 70/51/26 66/52/26 68/50/26
f 68/50/27 65/35/27 75/47/27
f 68/50/28 67/53/28 65/35/28
f 67/37/29 63/54/29 65/55/29
f 65/35/30 62/56/30 75/47/30
f 65/35/31 64/34/31 62/56/31
f 64/57/32 60/58/32 62/59/32
f 62/56/33 74/45/33 75/47/33
f 62/56/34 61/60/34 74/45/34
f 61/61/35 72/42/35 74/44/35
f 59/29/36 73/43/36 72/42/36
f 59/29/37 54/28/37 73/43/37
f 54/22/38 69/39/38 73/62/38
f 58/26/39 70/40/39 69/39/39
f 58/26/40 51/19/40 70/40/40
f 51/19/41 66/63/41 70/40/41
f 57/25/42 67/37/42 66/36/42
f 57/25/43 48/16/43 67/37/43
f 48/16/44 63/54/44 67/37/44
f 56/24/45 64/57/45 63/64/45
f 56/24/46 45/13/46 64/57/46
f 45/13/47 60/58/47 64/57/47
f 55/65/48 61/66/48 60/58/48
f 55/23/49 42/10/49 61/61/49
f 42/10/50 72/42/50 61/61/50
f 54/22/51 58/26/51 69/39/51
f 54/22/52 53/21/52 58/26/52
f 53/21/53 49/17/53 58/26/53
f 51/67/54 57/25/54 66/36/54
f 51/67/55 50/68/55 57/25/55
f 50/68/56 46/14/56 57/25/56
f 48/16/57 56/69/57 63/54/57
f 48/16/58 47/15/58 56/69/58
f 47/70/59 43/11/59 56/24/59
f 45/13/60 55/65/60 60/58/60
f 45/13/61 44/12/61 55/65/61
f 44/12/62 37/71/62 55/65/62
f 42/10/63 59/29/63 72/42/63
f 42/10/64 38/6/64 59/29/64
f 38/6/65 52/27/65 59/29/65
f 41/9/66 53/72/66 52/73/66
f 41/9/67 40/8/67 53/72/67
f 40/74/68 49/17/68 53/21/68
f 40/8/69 50/75/69 49/76/69
f 40/8/70 39/7/70 50/75/70
f 39/77/71 46/14/71 50/68/71
f 39/77/72 47/15/72 46/14/72
f 39/7/73 36/3/73 47/78/73
f 36/3/74 43/79/74 47/78/74
f 38/6/75 41/80/75 52/27/75
f 38/81/76 35/2/76 41/9/76
f 35/2/77 34/1/77 41/9/77
f 36/82/78 44/12/78 43/11/78
f 36/3/79 35/2/79 44/83/79
f 35/2/80 37/84/80 44/83/80
f 1/85/81 2/86/81 3/87/81
f 3/87/82 2/86/82 4/88/82
f 4/88/83 2/86/83 5/89/83
f 5/89/84 2/86/84 6/90/84
f 6/91/85 2/92/85 7/93/85
f 7/93/86 2/92/86 8/94/86
f 8/94/87 2/92/87 9/95/87
f 9/95/88 2/92/88 10/96/88
f 10/96/89 2/92/89 11/97/89
f 11/97/90 2/92/90 12/98/90
f 12/98/91 2/92/91 13/99/91
f 13/99/92 2/92/92 14/100/92
f 14/101/93 2/102/93 15/103/93
f 15/103/94 2/102/94 16/104/94
f 16/104/95 2/102/95 17/105/95
f 17/105/96 2/102/96 18/106/96
f 18/106/97 2/102/97 19/107/97
f 19/107/98 2/102/98 20/108/98
f 20/108/99 2/102/99 21/109/99
f 21/109/100 2/102/100 22/110/100
f 22/111/101 2/112/101 23/113/101
f 23/113/102 2/112/102 24/114/102
f 24/114/103 2/112/103 25/115/103
f 25/115/104 2/112/104 26/116/104
f 26/116/105 2/112/105 27/117/105
f 27/117/106 2/112/106 28/118/106
f 28/118/107 2/112/107 29/119/107
f 29/119/108 2/112/108 30/120/108
f 30/121/109 2/86/109 31/122/109
f 31/122/110 2/86/110 32/123/110
f 32/123/111 2/86/111 33/124/111
f 33/124/112 2/86/112 1/85/112
f 19/125/113 25/126/113 33/127/113
f 33/127/113 1/128/113 3/129/113
f 3/129/113 4/130/114 5/131/113
f 5/131/113 6/132/114 7/133/113
f 7/133/113 8/134/113 9/135/113
f 9/135/113 10/136/113 11/137/113
f 11/137/113 12/138/113 13/139/113
f 13/139/113 14/140/113 15/141/113
f 15/141/113 16/142/114 19/125/113
f 17/143/113 18/144/114 19/125/113
f 19/125/113 20/145/113 21/146/113
f 21/146/113 22/147/114 23/148/113
f 23/148/113 24/149/113 25/126/113
f 25/126/113 26/150/113 27/151/113
f 27/151/113 28/152/113 25/126/113
f 29/153/113 30/154/113 31/155/113
f 31/155/113 32/156/113 33/127/113
f 33/127/113 3/129/113 9/135/113
f 5/131/113 7/133/113 9/135/113
f 9/135/113 11/137/113 13/139/113
f 13/139/113 15/141/113 19/125/113
f 17/143/113 19/125/113 16/142/114
f 21/146/113 23/148/113 25/126/113
f 25/126/113 28/152/113 29/153/113
f 29/153/113 31/155/113 25/126/113
f 3/129/113 5/131/113 9/135/113
f 9/135/113 13/139/113 19/125/113
f 19/125/113 21/146/113 25/126/113
f 25/126/113 31/155/113 33/127/113
f 33/127/113 9/135/113 19/125/113
f 76/157/115 78/158/116 79/159/117
f 80/160/118 78/161/118 77/162/118
f 80/163/119 83/164/120 81/165/121
f 82/166/122 79/167/122 83/168/122
f 79/169/123 81/170/124 83/171/125
f 80/172/126 76/173/127 82/174/128
f 76/157/115 77/175/129 78/158/116
f 80/160/118 81/176/118 78/161/118
f 80/163/119 82/177/130 83/164/120
f 82/166/122 76/178/122 79/167/122
f 79/169/123 78/179/131 81/170/124
f 80/172/126 77/180/132 76/173/127
