# Blender v2.78 (sub 0) OBJ File: ''
# www.blender.org
o Cube.001
v 0.050000 -0.500000 -0.050000
v -0.050000 -0.500000 0.050000
v -0.050000 1.990492 -0.050000
v 0.207577 1.609460 0.335322
v 0.936449 -0.925875 0.447645
v -0.481216 1.083102 -1.066299
v 0.050000 -0.500000 0.050000
v 0.064153 0.112747 2.272166
vt 0.0002 0.6665
vt 0.3331 0.3335
vt 0.0002 0.3335
vt 0.0002 0.0002
vt 0.3331 0.3331
vt 0.0002 0.3331
vt 0.6669 0.0002
vt 0.9998 0.3331
vt 0.6669 0.3331
vt 0.3335 0.0002
vt 0.6665 0.3331
vt 0.3335 0.3331
vt 0.0002 0.6669
vt 0.3331 0.9998
vt 0.3331 0.6669
vt 0.6665 0.6665
vt 0.3335 0.3335
vt 0.3335 0.6665
vt 0.3331 0.6665
vt 0.3331 0.0002
vt 0.9998 0.0002
vt 0.6665 0.0002
vt 0.0002 0.9998
vt 0.6665 0.3335
vn -0.6228 -0.4736 -0.6228
vn -0.7068 -0.0284 -0.7068
vn 0.9432 0.2621 -0.2042
vn 0.9611 0.2762 -0.0034
vn 0.8404 0.2196 -0.4955
vn 0.2710 -0.4923 -0.8272
vn 0.4697 -0.3980 -0.7880
vn 0.9480 0.3181 0.0000
vn -0.4619 -0.8572 0.2278
vn -0.3834 -0.9228 -0.0372
vn 0.0000 -0.6825 -0.7309
vn -0.9898 0.0831 0.1159
vn -0.8668 0.3660 0.3386
vn -0.9987 0.0020 0.0507
vn -0.9103 -0.0076 0.4140
vn 0.7867 0.0536 -0.6150
vn -0.8952 -0.0145 0.4454
vn 0.0000 -1.0000 0.0000
vn 0.9187 0.2766 0.2818
vn 0.1086 -0.5483 -0.8292
vn -0.4685 -0.8452 0.2571
vn 0.2222 0.7635 0.6064
vn 0.8461 0.0340 -0.5320
s 1
f 1/1/1 2/2/1 3/3/2
f 4/4/3 5/5/4 6/6/5
f 6/7/6 7/8/7 1/9/8
f 5/10/9 2/11/10 7/12/11
f 8/13/12 3/14/13 2/15/14
f 1/16/15 4/17/16 6/18/17
f 1/1/1 7/19/18 2/2/1
f 4/4/3 8/20/19 5/5/4
f 6/7/6 5/21/20 7/8/7
f 5/10/9 8/22/21 2/11/10
f 8/13/12 4/23/22 3/14/13
f 1/16/15 3/24/23 4/17/16
